<svg id="Capa_1" enable-background="new 0 0 510.43 510.43" height="512" viewBox="0 0 510.43 510.43" width="512" xmlns="http://www.w3.org/2000/svg"><path d="m0 57.673v395.083h510.43v-395.083zm480.43 51.131-138.318 101.394h-42.338v-7.247l157.258-115.278h23.398zm-74.141-21.131-106.516 78.081v-78.081zm-195.633 78.082-106.516-78.082h106.516zm-157.258-78.082 157.259 115.278v7.247h-42.338l-138.319-101.394v-21.131zm-23.398 58.328 87.575 64.197h-87.575zm0 153.314h87.575l-87.575 64.197zm0 101.394 138.318-101.394h42.338v7.247l-158.508 116.195h-22.148zm72.89 22.048 107.766-78.998v78.998zm137.766 0v-153.442h-210.656v-29.117h210.656v-152.525h29.117v152.525h210.657v29.117h-210.657v153.441h-29.117zm59.117-78.998 107.766 78.998h-107.766zm158.509 78.998-158.509-116.195v-7.247h42.338l138.319 101.395v22.047zm22.148-59.244-87.575-64.198h87.575zm-87.576-153.315 87.575-64.197v64.197z"/></svg>